<svg width="1400" height="2880" viewBox="0 0 1400 2880"
xmlns="http://www.w3.org/2000/svg">

<style>
    .bg { fill: #0B0F19; }

    .box {
        fill: #111827;
        stroke: #00FF88;
        stroke-width: 2;
        rx: 14;
        filter: drop-shadow(0 0 8px #00FF88);
    }

    .box-red {
        fill: #111827;
        stroke: #EF4444;
        stroke-width: 2;
        rx: 14;
        filter: drop-shadow(0 0 8px #EF4444);
    }

    .box-yellow {
        fill: #111827;
        stroke: #FACC15;
        stroke-width: 2;
        rx: 14;
        filter: drop-shadow(0 0 8px #FACC15);
    }

    .agent {
        stroke: #A855F7;
        filter: drop-shadow(0 0 18px #A855F7);
        animation: pulse 2s infinite;
    }

    @keyframes pulse {
        0% { filter: drop-shadow(0 0 10px #A855F7); }
        50% { filter: drop-shadow(0 0 25px #A855F7); }
        100% { filter: drop-shadow(0 0 10px #A855F7); }
    }

    .text-title {
        fill: #00FF88;
        font-family: monospace;
        font-size: 18px;
        font-weight: bold;
        text-anchor: middle;
    }

    .text-title-red {
        fill: #EF4444;
        font-family: monospace;
        font-size: 18px;
        font-weight: bold;
        text-anchor: middle;
    }

    .text-title-yellow {
        fill: #FACC15;
        font-family: monospace;
        font-size: 18px;
        font-weight: bold;
        text-anchor: middle;
    }

    .text-body {
        fill: #00FF88;
        font-family: monospace;
        font-size: 14px;
        text-anchor: middle;
    }

    .text-body-red {
        fill: #EF4444;
        font-family: monospace;
        font-size: 14px;
        text-anchor: middle;
    }

    .text-body-yellow {
        fill: #FACC15;
        font-family: monospace;
        font-size: 14px;
        text-anchor: middle;
    }

    .line {
        stroke: #00FF88;
        stroke-width: 2;
        fill: none;
        stroke-dasharray: 8;
        animation: dash 2s linear infinite;
    }

    .line-red {
        stroke: #EF4444;
        stroke-width: 2;
        fill: none;
        stroke-dasharray: 8;
        animation: dash 2s linear infinite;
    }

    .line-yellow {
        stroke: #FACC15;
        stroke-width: 2;
        fill: none;
        stroke-dasharray: 8;
        animation: dash 2s linear infinite;
    }

    .line-purple {
        stroke: #A855F7;
        stroke-width: 2;
        fill: none;
        stroke-dasharray: 8;
        animation: dash 2s linear infinite;
    }

    @keyframes dash {
        to { stroke-dashoffset: -20; }
    }
</style>

<rect class="bg" width="100%" height="100%"/>

<!-- ── USUARIO INICIAL ─────────────────────────────────── -->
<rect class="box" x="300" y="40" width="800" height="90" rx="14"/>
<text class="text-title" x="700" y="75">Usuario WhatsApp</text>
<text class="text-body" x="700" y="105">"Quanto vendemos em janeiro?" / "Quem e o responsavel pelo RH?"</text>

<line class="line" x1="700" y1="130" x2="700" y2="180"/>

<!-- ── EVOLUTION API ──────────────────────────────────────── -->
<rect class="box" x="300" y="180" width="800" height="120" rx="14"/>
<text class="text-title" x="700" y="215">Evolution API (porta 8080)</text>
<text class="text-body" x="700" y="245">Gateway que recebe, valida e encaminha mensagens</text>

<line class="line" x1="700" y1="300" x2="700" y2="350"/>

<!-- ── APP.PY ──────────────────────────────────────────────── -->
<rect class="box" x="300" y="350" width="800" height="155" rx="14"/>
<text class="text-title" x="700" y="378">app.py — Webhook FastAPI (porta 8000)</text>
<text class="text-body" x="700" y="403">Extrai chat_id, sender_name (pushName) e mensagem</text>
<text class="text-body" x="700" y="424">Filtra grupos (@g.us) e mensagens do proprio bot (fromMe)</text>
<text class="text-body" x="700" y="445">Ignora sticker, imagem sem legenda, reacao</text>
<text class="text-body" x="700" y="466">Detecta tipo da mensagem e verifica acesso</text>

<line class="line" x1="700" y1="505" x2="700" y2="545"/>

<!-- ── CONTROLE DE ACESSO ──────────────────────────────────── -->
<rect class="box-yellow" x="300" y="545" width="800" height="230" rx="14"/>
<text class="text-title-yellow" x="700" y="575">Controle de Acesso — access_control.py</text>
<text class="text-body-yellow" x="700" y="603">Consulta SQLite: data/access.db</text>

<text class="text-body-red" x="700" y="642">✗  Nao autorizado  →  envia mensagem de bloqueio e encerra</text>
<text class="text-body-yellow" x="700" y="667">△  Admin + /comando  →  executa comando admin e encerra</text>
<text class="text-body" x="700" y="692">✓  Autorizado (usuario comum)  →  continua o fluxo</text>

<!-- Seta bloqueado (saindo pela direita e voltando) -->
<line class="line-red" x1="1100" y1="642" x2="1160" y2="642"/>
<line class="line-red" x1="1160" y1="642" x2="1160" y2="112"/>
<line class="line-red" x1="1160" y1="112" x2="1100" y2="112"/>
<text fill="#EF4444" font-family="monospace" font-size="12px" text-anchor="middle" x="1200" y="385">bloqueado</text>

<!-- Seta admin (saindo pela esquerda) -->
<line class="line-yellow" x1="300" y1="667" x2="190" y2="667"/>
<rect class="box-yellow" x="10" y="610" width="180" height="120" rx="10"/>
<text class="text-title-yellow" x="100" y="634" font-size="14px">Cmd Admin</text>
<text class="text-body-yellow" x="100" y="660" font-size="13px">/autorizar</text>
<text class="text-body-yellow" x="100" y="679" font-size="13px">/bloquear</text>
<text class="text-body-yellow" x="100" y="698" font-size="13px">/remover</text>
<text class="text-body-yellow" x="100" y="717" font-size="13px">/limpar</text>

<!-- Setas divergentes do controle de acesso -->
<line class="line" x1="500" y1="825" x2="330" y2="905"/>
<line class="line" x1="900" y1="825" x2="1070" y2="905"/>

<!-- Label "se for texto" -->
<rect fill="#0B0F19" stroke="#00FF88" stroke-width="1" rx="6" x="340" y="847" width="130" height="24"/>
<text fill="#FACC15" font-family="monospace" font-size="13px" font-weight="bold" text-anchor="middle" x="405" y="864">se for texto</text>

<!-- Label "se for audio" -->
<rect fill="#0B0F19" stroke="#00FF88" stroke-width="1" rx="6" x="930" y="847" width="130" height="24"/>
<text fill="#FACC15" font-family="monospace" font-size="13px" font-weight="bold" text-anchor="middle" x="995" y="864">se for audio</text>

<!-- ── TEXTO DIRETO (esquerda) ────────────────────────────── -->
<rect class="box" x="80" y="905" width="500" height="160" rx="14"/>
<text class="text-title" x="330" y="933">Texto direto</text>
<text class="text-body" x="330" y="960">mensagem extraida de conversation</text>
<text class="text-body" x="330" y="983">ou extendedTextMessage.text</text>
<text class="text-body" x="330" y="1006">passa direto para buffer_message()</text>

<!-- ── TRANSCRIBE (direita) ──────────────────────────────── -->
<rect class="box" x="820" y="905" width="500" height="160" rx="14"/>
<text class="text-title" x="1070" y="933">transcribe.py</text>
<text class="text-body" x="1070" y="960">get_media_base64() — baixa via Evolution API</text>
<text class="text-body" x="1070" y="983">OpenAI Whisper (whisper-1)</text>
<text class="text-body" x="1070" y="1006">language="pt"</text>
<text class="text-body" x="1070" y="1029">texto transcrito → buffer_message()</text>

<!-- Setas convergentes para buffer -->
<line class="line" x1="330" y1="1065" x2="700" y2="1140"/>
<line class="line" x1="1070" y1="1065" x2="700" y2="1140"/>

<!-- ── BUFFER ───────────────────────────────────────────────── -->
<rect class="box" x="300" y="1140" width="800" height="200" rx="14"/>
<text class="text-title" x="700" y="1175">message_buffer.py — Debounce com Redis</text>
<text class="text-body" x="700" y="1205">Armazena em {chat_id}_msg_buffer</text>
<text class="text-body" x="700" y="1230">Inicia timer de 3 segundos</text>
<text class="text-body" x="700" y="1255">Cancela e recria timer se nova mensagem chegar</text>
<text class="text-body" x="700" y="1280">Apos timeout — route_and_invoke()</text>

<line class="line" x1="700" y1="1340" x2="700" y2="1380"/>

<!-- ── ROUTER ─────────────────────────────────────────────── -->
<rect class="box" x="250" y="1380" width="900" height="260" rx="14"/>
<text class="text-title" x="700" y="1415">chains.py — route_and_invoke()</text>
<text class="text-body" x="700" y="1445">Busca historico no Redis / monta contexto da conversa</text>
<text class="text-body" x="700" y="1472">Router LLM classifica a intencao da pergunta</text>
<text class="text-body" x="700" y="1499">sql  →  dados de vendas, compras, faturamento</text>
<text class="text-body" x="700" y="1526">docs  →  documentos internos, politicas, contatos</text>
<text class="text-body" x="700" y="1553">ambos  →  executa os dois agentes em sequencia</text>
<text class="text-body" x="700" y="1580">geral  →  saudacoes e perguntas fora do escopo</text>

<!-- Segmento 1: Router → Labels (router bottom → label top) -->
<line class="line" x1="490" y1="1640" x2="225" y2="1675"/>
<line class="line" x1="700" y1="1640" x2="820" y2="1675"/>
<line class="line" x1="910" y1="1640" x2="1145" y2="1675"/>

<!-- Labels das rotas (waypoints entre router e agentes) -->
<rect fill="#0B0F19" stroke="#00FF88" stroke-width="1" rx="6" x="100" y="1675" width="250" height="46"/>
<text fill="#FACC15" font-family="monospace" font-size="13px" font-weight="bold" text-anchor="middle" x="225" y="1695">sql / ambos</text>
<text fill="#FACC15" font-family="monospace" font-size="12px" font-weight="bold" text-anchor="middle" x="225" y="1714">vendas • delivery • pgto • compras</text>

<rect fill="#0B0F19" stroke="#00FF88" stroke-width="1" rx="6" x="710" y="1675" width="220" height="46"/>
<text fill="#FACC15" font-family="monospace" font-size="13px" font-weight="bold" text-anchor="middle" x="820" y="1695">geral</text>
<text fill="#FACC15" font-family="monospace" font-size="12px" font-weight="bold" text-anchor="middle" x="820" y="1714">saudações • fora do escopo</text>

<rect fill="#0B0F19" stroke="#00FF88" stroke-width="1" rx="6" x="1010" y="1675" width="270" height="46"/>
<text fill="#FACC15" font-family="monospace" font-size="13px" font-weight="bold" text-anchor="middle" x="1145" y="1695">docs / ambos</text>
<text fill="#FACC15" font-family="monospace" font-size="12px" font-weight="bold" text-anchor="middle" x="1145" y="1714">documentos • contatos</text>

<!-- Segmento 2: Labels → Agentes (label bottom → agent top) -->
<line class="line" x1="225" y1="1721" x2="360" y2="1740"/>
<line class="line" x1="820" y1="1721" x2="820" y2="1820"/>
<line class="line" x1="1145" y1="1721" x2="1155" y2="1740"/>

<!-- ── AGENTE SQL (esquerda) ──────────────────────────────── -->
<rect class="box agent" x="10" y="1740" width="700" height="180" rx="14"/>
<text class="text-title" x="360" y="1778">Agente SQL — GPT-4o</text>
<text class="text-body" x="360" y="1808">ReAct: Thought / Action / Observation / Final Answer</text>
<text class="text-body" x="360" y="1833">Ferramentas: Dremio (vendas + delivery + pagamentos) + MySQL (compras)</text>
<text class="text-body" x="360" y="1858">Prompt: regras SQL, SSS, confidencialidade</text>

<!-- ── LLM DIRETO — GERAL (centro) ──────────────────────── -->
<rect class="box" x="720" y="1820" width="200" height="130" rx="14"/>
<text class="text-title" x="820" y="1851">LLM Direto — GPT-4o</text>
<text class="text-body" x="820" y="1876">Prompt: general_prompt</text>
<text class="text-body" x="820" y="1898">sem ferramentas</text>
<text class="text-body" x="820" y="1920">resposta direta</text>

<!-- ── AGENTE RAG (direita) ──────────────────────────────── -->
<rect class="box agent" x="930" y="1740" width="450" height="180" rx="14"/>
<text class="text-title" x="1155" y="1778">Agente RAG — GPT-4o</text>
<text class="text-body" x="1155" y="1808">ReAct: Thought / Action / Observation / Final Answer</text>
<text class="text-body" x="1155" y="1833">Ferramenta: consultar_documentos</text>
<text class="text-body" x="1155" y="1858">Prompt: regras de documentos institucionais</text>

<!-- Setas do agente SQL para tools -->
<line class="line" x1="94"  y1="1920" x2="94"  y2="2040"/>
<line class="line" x1="269" y1="1920" x2="269" y2="2040"/>
<line class="line" x1="444" y1="1920" x2="444" y2="2040"/>
<line class="line" x1="619" y1="1920" x2="619" y2="2040"/>

<!-- Labels SQL tools -->
<rect fill="#0B0F19" stroke="#00FF88" stroke-width="1" rx="6" x="10"  y="1938" width="168" height="42"/>
<text fill="#FACC15" font-family="monospace" font-size="12px" font-weight="bold" text-anchor="middle" x="94"  y="1955">vendas /</text>
<text fill="#FACC15" font-family="monospace" font-size="12px" font-weight="bold" text-anchor="middle" x="94"  y="1972">faturamento</text>

<rect fill="#0B0F19" stroke="#00FF88" stroke-width="1" rx="6" x="184" y="1938" width="170" height="42"/>
<text fill="#FACC15" font-family="monospace" font-size="12px" font-weight="bold" text-anchor="middle" x="269" y="1955">vendas</text>
<text fill="#FACC15" font-family="monospace" font-size="12px" font-weight="bold" text-anchor="middle" x="269" y="1972">delivery</text>

<rect fill="#0B0F19" stroke="#00FF88" stroke-width="1" rx="6" x="358" y="1938" width="172" height="42"/>
<text fill="#FACC15" font-family="monospace" font-size="12px" font-weight="bold" text-anchor="middle" x="444" y="1955">formas de</text>
<text fill="#FACC15" font-family="monospace" font-size="12px" font-weight="bold" text-anchor="middle" x="444" y="1972">pagamento</text>

<rect fill="#0B0F19" stroke="#00FF88" stroke-width="1" rx="6" x="534" y="1938" width="172" height="42"/>
<text fill="#FACC15" font-family="monospace" font-size="12px" font-weight="bold" text-anchor="middle" x="620" y="1955">compras /</text>
<text fill="#FACC15" font-family="monospace" font-size="12px" font-weight="bold" text-anchor="middle" x="620" y="1972">pedidos</text>

<!-- Seta do agente RAG para tool -->
<line class="line" x1="1155" y1="1920" x2="1155" y2="2040"/>

<!-- Linha LLM direto → pos-processamento (sem ferramentas, linha direta) -->
<line class="line" x1="820" y1="1950" x2="820" y2="2210"/>
<line class="line" x1="820" y1="2210" x2="700" y2="2340"/>

<!-- ── DREMIO TOOL (vendas) ─────────────────────────────────── -->
<rect class="box" x="10" y="2040" width="168" height="170" rx="14"/>
<text class="text-title" x="94" y="2065" font-size="13">consultar_vendas</text>
<text class="text-body" x="94" y="2089" font-size="12">DremioSalesQueryTool</text>
<text class="text-body" x="94" y="2111" font-size="12">REST API Dremio</text>
<text class="text-body" x="94" y="2133" font-size="12">Tabela: fSales</text>
<text class="text-body" x="94" y="2155" font-size="12">retorna DataFrame</text>

<!-- ── DREMIO TOOL (delivery) ──────────────────────────────── -->
<rect class="box" x="184" y="2040" width="170" height="170" rx="14"/>
<text class="text-title" x="269" y="2065" font-size="13">consultar_delivery</text>
<text class="text-body" x="269" y="2089" font-size="12">DremioDeliveryQueryTool</text>
<text class="text-body" x="269" y="2111" font-size="12">REST API Dremio</text>
<text class="text-body" x="269" y="2133" font-size="12">fSalesDelivery</text>
<text class="text-body" x="269" y="2155" font-size="12">retorna DataFrame</text>

<!-- ── DREMIO TOOL (pagamentos) ────────────────────────────── -->
<rect class="box" x="358" y="2040" width="172" height="170" rx="14"/>
<text class="text-title" x="444" y="2058" font-size="12">consultar_formas</text>
<text class="text-title" x="444" y="2075" font-size="12">_pagamento</text>
<text class="text-body" x="444" y="2097" font-size="12">DremioPaymentQueryTool</text>
<text class="text-body" x="444" y="2119" font-size="12">REST API Dremio</text>
<text class="text-body" x="444" y="2141" font-size="12">fFormasPagamento</text>
<text class="text-body" x="444" y="2163" font-size="12">retorna DataFrame</text>

<!-- ── MYSQL TOOL ──────────────────────────────────────────── -->
<rect class="box" x="534" y="2040" width="172" height="170" rx="14"/>
<text class="text-title" x="620" y="2065" font-size="13">consultar_compras</text>
<text class="text-body" x="620" y="2089" font-size="12">MySQLPurchasesQueryTool</text>
<text class="text-body" x="620" y="2111" font-size="12">Conector MySQL</text>
<text class="text-body" x="620" y="2133" font-size="12">retorna DataFrame</text>

<!-- ── RAG TOOL ────────────────────────────────────────────── -->
<rect class="box" x="930" y="2040" width="450" height="170" rx="14"/>
<text class="text-title" x="1155" y="2073">consultar_documentos</text>
<text class="text-body" x="1155" y="2100">RAGDocumentQueryTool</text>
<text class="text-body" x="1155" y="2123">Chroma similarity_search(k=5)</text>
<text class="text-body" x="1155" y="2146">vectorstore/ — disco persistente</text>

<!-- Setas convergentes para pos-processamento -->
<line class="line" x1="94"  y1="2210" x2="700" y2="2340"/>
<line class="line" x1="269" y1="2210" x2="700" y2="2340"/>
<line class="line" x1="444" y1="2210" x2="700" y2="2340"/>
<line class="line" x1="619" y1="2210" x2="700" y2="2340"/>
<line class="line" x1="1155" y1="2210" x2="700" y2="2340"/>

<!-- ── POS PROCESSAMENTO ──────────────────────────────────── -->
<rect class="box" x="300" y="2340" width="800" height="160" rx="14"/>
<text class="text-title" x="700" y="2375">chains.py — Pos-processamento</text>
<text class="text-body" x="700" y="2405">Salva historico atualizado no Redis</text>
<text class="text-body" x="700" y="2430">Retorna resposta formatada</text>

<line class="line-purple" x1="700" y1="2500" x2="700" y2="2550"/>

<!-- ── ENVIO ──────────────────────────────────────────────── -->
<rect class="box" x="300" y="2550" width="800" height="140" rx="14"/>
<text class="text-title" x="700" y="2585">integrations/evolution_api.py</text>
<text class="text-body" x="700" y="2615">send_whatsapp_message()</text>
<text class="text-body" x="700" y="2640">POST — Evolution API — WhatsApp</text>

<line class="line" x1="700" y1="2690" x2="700" y2="2740"/>

<!-- ── USUARIO FINAL ───────────────────────────────────────── -->
<rect class="box" x="300" y="2740" width="800" height="90" rx="14"/>
<text class="text-title" x="700" y="2775">Usuario WhatsApp</text>
<text class="text-body" x="700" y="2805">"R$ 45.230,00 em janeiro" / "RH: Joao Silva — joao@empresa.com"</text>

</svg>
