<svg width="2000" height="1980" viewBox="0 0 2000 1980" xmlns="http://www.w3.org/2000/svg">
<style>
  .bg   { fill: #0B0F19; }

  /* ── boxes ── */
  .card         { fill: #111827; stroke: #00FF88; stroke-width: 2; filter: drop-shadow(0 0 6px #00FF8844); }
  .card-yellow  { fill: #111827; stroke: #FACC15; stroke-width: 2; filter: drop-shadow(0 0 6px #FACC1544); }
  .card-red     { fill: #1a0f0f; stroke: #EF4444; stroke-width: 2; filter: drop-shadow(0 0 6px #EF444444); }
  .card-purple  { fill: #0f0f1a; stroke: #A855F7; stroke-width: 2; filter: drop-shadow(0 0 10px #A855F766);
                  animation: glow 2.5s ease-in-out infinite; }
  .card-tool    { fill: #0d1a14; stroke: #00CC6A; stroke-width: 1.5; }

  @keyframes glow {
    0%,100% { filter: drop-shadow(0 0 8px #A855F766); }
    50%     { filter: drop-shadow(0 0 20px #A855F7AA); }
  }

  /* ── text ── */
  .t-head   { font-family: monospace; font-size: 23px; font-weight: bold; text-anchor: middle; fill: #00FF88; }
  .t-head-y { font-family: monospace; font-size: 23px; font-weight: bold; text-anchor: middle; fill: #FACC15; }
  .t-head-p { font-family: monospace; font-size: 23px; font-weight: bold; text-anchor: middle; fill: #C084FC; }
  .t-sub    { font-family: monospace; font-size: 17px; text-anchor: middle; fill: #6EE7B7; }
  .t-sub-y  { font-family: monospace; font-size: 17px; text-anchor: middle; fill: #FDE68A; }
  .t-sub-r  { font-family: monospace; font-size: 17px; text-anchor: middle; fill: #FCA5A5; }
  .t-sub-p  { font-family: monospace; font-size: 17px; text-anchor: middle; fill: #D8B4FE; }
  .t-label  { font-family: monospace; font-size: 15px; font-weight: bold; text-anchor: middle; fill: #FACC15; }
  .t-tool   { font-family: monospace; font-size: 16px; font-weight: bold; text-anchor: middle; fill: #34D399; }
  .t-tool-s { font-family: monospace; font-size: 14px; text-anchor: middle; fill: #6EE7B7; }

  /* ── arrows ── */
  .arr      { stroke: #00FF88; stroke-width: 2; fill: none; marker-end: url(#ah-green); }
  .arr-y    { stroke: #FACC15; stroke-width: 2; fill: none; stroke-dasharray: 6 3; marker-end: url(#ah-yellow); }
  .arr-r    { stroke: #EF4444; stroke-width: 2; fill: none; stroke-dasharray: 6 3; marker-end: url(#ah-red); }
  .arr-p    { stroke: #A855F7; stroke-width: 2; fill: none; marker-end: url(#ah-purple); }
  .arr-d    { stroke: #4ADE80; stroke-width: 1.5; fill: none; stroke-dasharray: 5 4; marker-end: url(#ah-green2); }

  /* ── divider ── */
  .divider  { stroke: #1F2937; stroke-width: 1; fill: none; }

  /* ── badge ── */
  .badge-g  { fill: #052e16; stroke: #00FF88; stroke-width: 1; }
  .badge-y  { fill: #1c1400; stroke: #FACC15; stroke-width: 1; }
  .badge-p  { fill: #0f0520; stroke: #A855F7; stroke-width: 1; }
</style>

<!-- ── arrowhead markers ── -->
<defs>
  <marker id="ah-green"  markerWidth="8" markerHeight="6" refX="7" refY="3" orient="auto">
    <path d="M0,0 L8,3 L0,6 Z" fill="#00FF88"/>
  </marker>
  <marker id="ah-green2" markerWidth="8" markerHeight="6" refX="7" refY="3" orient="auto">
    <path d="M0,0 L8,3 L0,6 Z" fill="#4ADE80"/>
  </marker>
  <marker id="ah-yellow" markerWidth="8" markerHeight="6" refX="7" refY="3" orient="auto">
    <path d="M0,0 L8,3 L0,6 Z" fill="#FACC15"/>
  </marker>
  <marker id="ah-red"    markerWidth="8" markerHeight="6" refX="7" refY="3" orient="auto">
    <path d="M0,0 L8,3 L0,6 Z" fill="#EF4444"/>
  </marker>
  <marker id="ah-purple" markerWidth="8" markerHeight="6" refX="7" refY="3" orient="auto">
    <path d="M0,0 L8,3 L0,6 Z" fill="#A855F7"/>
  </marker>
</defs>

<rect class="bg" width="100%" height="100%"/>

<!-- ════════════════════════════════════════════════════
     SEÇÃO 1 — ENTRADA (WhatsApp → App)
     ════════════════════════════════════════════════════ -->

<!-- 1.1 Usuário -->
<rect class="card" x="600" y="30" width="800" height="76" rx="12"/>
<text class="t-head" x="1000" y="60">Usuario WhatsApp</text>
<text class="t-sub"  x="1000" y="82">mensagem de texto ou audio</text>

<line class="arr" x1="1000" y1="106" x2="1000" y2="136"/>

<!-- 1.2 Evolution API -->
<rect class="card" x="600" y="140" width="800" height="76" rx="12"/>
<text class="t-head" x="1000" y="170">Evolution API  —  porta 8080</text>
<text class="t-sub"  x="1000" y="192">gateway WhatsApp: recebe, valida e encaminha</text>

<line class="arr" x1="1000" y1="216" x2="1000" y2="246"/>

<!-- 1.3 App.py -->
<rect class="card" x="600" y="250" width="800" height="110" rx="12"/>
<text class="t-head" x="1000" y="278">app.py  —  Webhook FastAPI  (porta 8000)</text>
<text class="t-sub"  x="1000" y="300">extrai chat_id · sender_name · texto da mensagem</text>
<text class="t-sub"  x="1000" y="318">filtra grupos @g.us · fromMe · sticker · imagem sem legenda</text>
<text class="t-sub"  x="1000" y="336">detecta tipo (texto / audio) e verifica acesso</text>

<line class="arr" x1="1000" y1="360" x2="1000" y2="390"/>

<!-- ════════════════════════════════════════════════════
     SEÇÃO 2 — CONTROLE DE ACESSO
     ════════════════════════════════════════════════════ -->
<rect class="card-yellow" x="600" y="394" width="800" height="170" rx="12"/>
<text class="t-head-y" x="1000" y="424">Controle de Acesso  —  access_control.py</text>
<text class="t-sub-y"  x="1000" y="452">SQLite  data/access.db   ·   verifica telefone do remetente</text>

<!-- divisor interno -->
<line class="divider" x1="620" y1="468" x2="1380" y2="468"/>

<!-- 3 saídas possíveis — colunas em 750 · 1000 · 1250 -->
<text class="t-sub-r" x="750" y="492">✗ Nao autorizado</text>
<text class="t-sub-y" x="1000" y="492">△ Admin + /comando</text>
<text class="t-sub"   x="1250" y="492">✓ Autorizado</text>

<text class="t-sub-r" x="750" y="518">→ bloqueia · encerra</text>
<text class="t-sub-y" x="1000" y="518">→ executa · encerra</text>
<text class="t-sub"   x="1250" y="518">→ continua fluxo</text>

<!-- Seta blocked — loop lateral direito (curva suave) -->
<path class="arr-r" d="M1400,492 C1680,492 1680,106 1400,106" fill="none"/>
<text class="t-sub-r" x="1660" y="299" font-size="14px" text-anchor="middle" transform="rotate(-90,1660,299)">bloqueado</text>

<!-- Cmd Admin — caixa lateral esquerda -->
<line class="arr-y" x1="600" y1="492" x2="380" y2="492"/>
<rect class="card-yellow" x="150" y="436" width="230" height="130" rx="10"/>
<text class="t-head-y" x="265" y="462" font-size="17px">Cmd Admin</text>
<text class="t-sub-y"  x="265" y="486" font-size="14px">/autorizar · /bloquear</text>
<text class="t-sub-y"  x="265" y="506" font-size="14px">/remover · /desbloquear</text>
<text class="t-sub-y"  x="265" y="526" font-size="14px">/usuarios · /ajuda</text>

<!-- somente "Autorizado" continua -->
<line class="arr" x1="1000" y1="564" x2="1000" y2="578"/>

<!-- ════════════════════════════════════════════════════
     SEÇÃO 3 — PRÉ-PROCESSAMENTO (Texto / Áudio)
     ════════════════════════════════════════════════════ -->
<rect class="card" x="600" y="578" width="800" height="110" rx="12"/>
<text class="t-head" x="1000" y="606">Pre-processamento de Mensagem</text>
<line class="divider" x1="620" y1="618" x2="1380" y2="618"/>

<!-- duas colunas -->
<text class="t-sub"  x="800" y="638" font-weight="bold">Texto</text>
<text class="t-sub"  x="800" y="656">extrai conversation /</text>
<text class="t-sub"  x="800" y="672">extendedTextMessage.text</text>

<line x1="1000" y1="622" x2="1000" y2="684" stroke="#1F2937" stroke-width="1"/>

<text class="t-sub"  x="1200" y="638" font-weight="bold">Audio  →  Whisper</text>
<text class="t-sub"  x="1200" y="656">get_media_base64() via Evolution</text>
<text class="t-sub"  x="1200" y="672">OpenAI whisper-1  ·  language=pt</text>

<line class="arr" x1="1000" y1="688" x2="1000" y2="718"/>

<!-- ════════════════════════════════════════════════════
     SEÇÃO 4 — BUFFER
     ════════════════════════════════════════════════════ -->
<rect class="card" x="600" y="722" width="800" height="120" rx="12"/>
<text class="t-head" x="1000" y="750">message_buffer.py  —  Debounce Redis</text>
<text class="t-sub"  x="1000" y="772">acumula mensagens do mesmo chat em {chat_id}_msg_buffer</text>
<text class="t-sub"  x="1000" y="792">timer 3 s — reinicia a cada nova msg — dispara route_and_invoke()</text>
<text class="t-sub"  x="1000" y="812">TTL 5 min no Redis  ·  histórico de conversa 24 h</text>

<line class="arr" x1="1000" y1="842" x2="1000" y2="872"/>

<!-- ════════════════════════════════════════════════════
     SEÇÃO 5 — ROUTER
     ════════════════════════════════════════════════════ -->
<rect class="card" x="600" y="876" width="800" height="140" rx="12"/>
<text class="t-head" x="1000" y="906">Router LLM  —  chains.py</text>
<text class="t-sub"  x="1000" y="930">classifica a intenção da pergunta em uma de quatro rotas</text>
<line class="divider" x1="620" y1="944" x2="1380" y2="944"/>
<text class="t-sub"  x="800" y="962">sql  →  dados / faturamento</text>
<text class="t-sub"  x="1200" y="962">docs  →  documentos internos</text>
<text class="t-sub"  x="800" y="980">ambos  →  dados + documentos</text>
<text class="t-sub"  x="1200" y="980">geral  →  saudações / fora escopo</text>
<text class="t-sub"  x="1000" y="1000" fill="#6B7280">em caso de resposta inválida do Router: fallback → sql</text>

<!-- ════════════════════════════════════════════════════
     SEÇÃO 6 — AGENTES  (3 colunas)
     ════════════════════════════════════════════════════ -->

<!-- setas do router para os 3 agentes -->
<!-- Router bottom y=1016 — SQL center=460, LLM center=1000, RAG center=1540 -->
<path class="arr-d" d="M800,1016 L460,1082"/>
<path class="arr-d" d="M1000,1016 L1000,1026"/>
<line class="arr" x1="1000" y1="1052" x2="1000" y2="1084"/>
<path class="arr-d" d="M1200,1016 L1540,1082"/>

<!-- badges de rota -->
<rect class="badge-y" x="378" y="1026" width="164" height="26" rx="6"/>
<text class="t-label" x="460" y="1043">sql / ambos</text>

<rect class="badge-y" x="918" y="1024" width="164" height="28" rx="6"/>
<text class="t-label" x="1000" y="1043" font-size="17px">geral</text>

<rect class="badge-y" x="1458" y="1026" width="164" height="26" rx="6"/>
<text class="t-label" x="1540" y="1043">docs / ambos</text>

<!-- ─── COLUNA SQL (x=10, w=900, center=460) ─── -->
<rect class="card-purple" x="10" y="1084" width="900" height="160" rx="14"/>
<text class="t-head-p" x="460" y="1116">Agente SQL  —  GPT-4o</text>
<text class="t-sub-p"  x="460" y="1140">ReAct: Thought → Action → Observation → Final Answer</text>
<text class="t-sub-p"  x="460" y="1160">Ferramentas: Dremio (vendas · delivery · pgto · estornos · metas)  +  MySQL (compras)</text>
<text class="t-sub-p"  x="460" y="1180">Prompt: confidencialidade · regras SQL Dremio · SSS · datas</text>
<text class="t-sub-p"  x="460" y="1200">Histórico: últimas 5 mensagens por sessão (Redis)</text>

<!-- ─── COLUNA LLM (x=920, w=160, center=1000) ─── -->
<rect class="card" x="920" y="1084" width="160" height="160" rx="12"/>
<text class="t-head" x="1000" y="1114">LLM Direto</text>
<text class="t-sub"  x="1000" y="1138">GPT-4o</text>
<text class="t-sub"  x="1000" y="1158">general_prompt</text>
<text class="t-sub"  x="1000" y="1178">sem ferramentas</text>
<text class="t-sub"  x="1000" y="1198">resposta direta</text>

<!-- ─── COLUNA RAG (x=1090, w=900, center=1540) ─── -->
<rect class="card-purple" x="1090" y="1084" width="900" height="160" rx="14"/>
<text class="t-head-p" x="1540" y="1116">Agente RAG  —  GPT-4o</text>
<text class="t-sub-p"  x="1540" y="1140">ReAct: Thought → Action → Observation → Final Answer</text>
<text class="t-sub-p"  x="1540" y="1160">Ferramenta: consultar_documentos (Chroma)</text>
<text class="t-sub-p"  x="1540" y="1180">Prompt: responder somente com trechos dos documentos</text>
<text class="t-sub-p"  x="1540" y="1200">Busca semântica  ·  k=5 chunks  ·  vectorstore persistente</text>

<!-- setas agents → tools -->
<line class="arr" x1="460"  y1="1244" x2="460"  y2="1278"/>
<line class="arr" x1="1540" y1="1244" x2="1540" y2="1278"/>
<!-- LLM direto vai direto para pos-proc -->
<path class="arr-d" d="M1000,1244 Q1000,1400 1000,1644" fill="none"/>

<!-- ════════════════════════════════════════════════════
     SEÇÃO 7 — TOOLS
     ════════════════════════════════════════════════════ -->

<!-- ─── 6 SQL Tools (x=12, w=148 each, gap=4) ─── -->
<!-- 6×148+5×4=908, start x=12, centers: 86·238·390·542·694·846 -->

<!-- vendas — center=86 -->
<rect class="card-tool" x="12"  y="1282" width="148" height="125" rx="10"/>
<text class="t-tool"   x="86"  y="1307" style="font-size: 12px">consultar_vendas</text>
<line x1="22"  y1="1315" x2="150" y2="1315" stroke="#00CC6A" stroke-width="1" opacity="0.4"/>
<text class="t-tool-s" x="86"  y="1334">REST API Dremio</text>
<text class="t-tool-s" x="86"  y="1356">fSales</text>

<!-- delivery — center=238 -->
<rect class="card-tool" x="164" y="1282" width="148" height="125" rx="10"/>
<text class="t-tool"   x="238" y="1307" style="font-size: 12px">consultar_delivery</text>
<line x1="174" y1="1315" x2="302" y2="1315" stroke="#00CC6A" stroke-width="1" opacity="0.4"/>
<text class="t-tool-s" x="238" y="1334">REST API Dremio</text>
<text class="t-tool-s" x="238" y="1356">fSalesDelivery</text>

<!-- pagamentos — center=390 -->
<rect class="card-tool" x="316" y="1282" width="148" height="125" rx="10"/>
<text class="t-tool"   x="390" y="1302" style="font-size: 12px">consultar_formas</text>
<text class="t-tool"   x="390" y="1316" style="font-size: 12px">_pagamento</text>
<line x1="326" y1="1323" x2="454" y2="1323" stroke="#00CC6A" stroke-width="1" opacity="0.4"/>
<text class="t-tool-s" x="390" y="1341">REST API Dremio</text>
<text class="t-tool-s" x="390" y="1363">fFormasPagamento</text>

<!-- estornos — center=542 -->
<rect class="card-tool" x="468" y="1282" width="148" height="125" rx="10"/>
<text class="t-tool"   x="542" y="1307" style="font-size: 12px">consultar_estornos</text>
<line x1="478" y1="1315" x2="606" y2="1315" stroke="#00CC6A" stroke-width="1" opacity="0.4"/>
<text class="t-tool-s" x="542" y="1334">REST API Dremio</text>
<text class="t-tool-s" x="542" y="1356">fEstornos</text>

<!-- metas — center=694 -->
<rect class="card-tool" x="620" y="1282" width="148" height="125" rx="10"/>
<text class="t-tool"   x="694" y="1307" style="font-size: 12px">consultar_metas</text>
<line x1="630" y1="1315" x2="758" y2="1315" stroke="#00CC6A" stroke-width="1" opacity="0.4"/>
<text class="t-tool-s" x="694" y="1334">REST API Dremio</text>
<text class="t-tool-s" x="694" y="1356">dMetas_Casas</text>

<!-- compras — center=846 -->
<rect class="card-tool" x="772" y="1282" width="148" height="125" rx="10"/>
<text class="t-tool"   x="846" y="1307" style="font-size: 12px">consultar_compras</text>
<line x1="782" y1="1315" x2="910" y2="1315" stroke="#00CC6A" stroke-width="1" opacity="0.4"/>
<text class="t-tool-s" x="846" y="1334">Conector MySQL</text>
<text class="t-tool-s" x="846" y="1356">tabela_compras</text>

<!-- ─── RAG Tool (x=1098, w=884) — center=1540 ─── -->
<rect class="card-tool" x="1098" y="1282" width="884" height="125" rx="10"/>
<text class="t-tool"   x="1540" y="1308">consultar_documentos</text>
<line x1="1108" y1="1316" x2="1972" y2="1316" stroke="#00CC6A" stroke-width="1" opacity="0.4"/>
<text class="t-tool-s" x="1540" y="1336">RAGDocumentQueryTool</text>
<text class="t-tool-s" x="1540" y="1356">Chroma  ·  similarity_search(k=5)</text>
<text class="t-tool-s" x="1540" y="1376">vectorstore/  ·  OpenAI ada-002</text>

<!-- setas tools → pos-proc -->
<path class="arr-d" d="M86,1407   Q86,1520   1000,1644"  fill="none"/>
<path class="arr-d" d="M238,1407  Q238,1520  1000,1644"  fill="none"/>
<path class="arr-d" d="M390,1407  Q390,1520  1000,1644"  fill="none"/>
<path class="arr-d" d="M542,1407  Q542,1520  1000,1644"  fill="none"/>
<path class="arr-d" d="M694,1407  Q694,1520  1000,1644"  fill="none"/>
<path class="arr-d" d="M846,1407  Q846,1520  1000,1644"  fill="none"/>
<path class="arr-d" d="M1540,1407 Q1540,1540 1000,1644"  fill="none"/>

<!-- ════════════════════════════════════════════════════
     SEÇÃO 8 — PÓS-PROCESSAMENTO
     ════════════════════════════════════════════════════ -->
<rect class="card" x="600" y="1644" width="800" height="100" rx="12"/>
<text class="t-head" x="1000" y="1672">chains.py  —  Pos-processamento</text>
<text class="t-sub"  x="1000" y="1696">salva histórico atualizado no Redis (TTL 24 h)</text>
<text class="t-sub"  x="1000" y="1718">retorna resposta formatada ao caller</text>

<line class="arr-p" x1="1000" y1="1744" x2="1000" y2="1764"/>

<!-- ════════════════════════════════════════════════════
     SEÇÃO 9 — ENVIO
     ════════════════════════════════════════════════════ -->
<rect class="card" x="600" y="1768" width="800" height="90" rx="12"/>
<text class="t-head" x="1000" y="1798">integrations/evolution_api.py</text>
<text class="t-sub"  x="1000" y="1822">send_whatsapp_message()  →  POST Evolution API  →  WhatsApp</text>
<text class="t-sub"  x="1000" y="1844">usa EVOLUTION_API_URL + EVOLUTION_INSTANCE_NAME + API_KEY</text>

<line class="arr" x1="1000" y1="1858" x2="1000" y2="1878"/>

<!-- ════════════════════════════════════════════════════
     SEÇÃO 10 — USUÁRIO FINAL
     ════════════════════════════════════════════════════ -->
<rect class="card" x="600" y="1882" width="800" height="76" rx="12"/>
<text class="t-head" x="1000" y="1912">Usuario WhatsApp</text>
<text class="t-sub"  x="1000" y="1936">recebe a resposta no chat</text>

</svg>
