<svg width="1600" height="2880" viewBox="0 0 1600 2880"
xmlns="http://www.w3.org/2000/svg">

<style>
    .bg { fill: #0B0F19; }

    .box {
        fill: #111827;
        stroke: #00FF88;
        stroke-width: 2;
        rx: 14;
        filter: drop-shadow(0 0 8px #00FF88);
    }

    .box-red {
        fill: #111827;
        stroke: #EF4444;
        stroke-width: 2;
        rx: 14;
        filter: drop-shadow(0 0 8px #EF4444);
    }

    .box-yellow {
        fill: #111827;
        stroke: #FACC15;
        stroke-width: 2;
        rx: 14;
        filter: drop-shadow(0 0 8px #FACC15);
    }

    .agent {
        stroke: #A855F7;
        filter: drop-shadow(0 0 18px #A855F7);
        animation: pulse 2s infinite;
    }

    @keyframes pulse {
        0% { filter: drop-shadow(0 0 10px #A855F7); }
        50% { filter: drop-shadow(0 0 25px #A855F7); }
        100% { filter: drop-shadow(0 0 10px #A855F7); }
    }

    .text-title {
        fill: #00FF88;
        font-family: monospace;
        font-size: 18px;
        font-weight: bold;
        text-anchor: middle;
    }

    .text-title-red {
        fill: #EF4444;
        font-family: monospace;
        font-size: 18px;
        font-weight: bold;
        text-anchor: middle;
    }

    .text-title-yellow {
        fill: #FACC15;
        font-family: monospace;
        font-size: 18px;
        font-weight: bold;
        text-anchor: middle;
    }

    .text-body {
        fill: #00FF88;
        font-family: monospace;
        font-size: 14px;
        text-anchor: middle;
    }

    .text-body-red {
        fill: #EF4444;
        font-family: monospace;
        font-size: 14px;
        text-anchor: middle;
    }

    .text-body-yellow {
        fill: #FACC15;
        font-family: monospace;
        font-size: 14px;
        text-anchor: middle;
    }

    .line {
        stroke: #00FF88;
        stroke-width: 2;
        fill: none;
        stroke-dasharray: 8;
        animation: dash 2s linear infinite;
    }

    .line-red {
        stroke: #EF4444;
        stroke-width: 2;
        fill: none;
        stroke-dasharray: 8;
        animation: dash 2s linear infinite;
    }

    .line-yellow {
        stroke: #FACC15;
        stroke-width: 2;
        fill: none;
        stroke-dasharray: 8;
        animation: dash 2s linear infinite;
    }

    .line-purple {
        stroke: #A855F7;
        stroke-width: 2;
        fill: none;
        stroke-dasharray: 8;
        animation: dash 2s linear infinite;
    }

    @keyframes dash {
        to { stroke-dashoffset: -20; }
    }
</style>

<rect class="bg" width="100%" height="100%"/>

<!-- ── USUARIO INICIAL ─────────────────────────────────── -->
<rect class="box" x="400" y="40" width="800" height="90" rx="14"/>
<text class="text-title" x="800" y="75">Usuario WhatsApp</text>
<text class="text-body" x="800" y="105">"Quanto vendemos em janeiro?" / "Quem e o responsavel pelo RH?"</text>

<line class="line" x1="800" y1="130" x2="800" y2="180"/>

<!-- ── EVOLUTION API ──────────────────────────────────────── -->
<rect class="box" x="400" y="180" width="800" height="120" rx="14"/>
<text class="text-title" x="800" y="215">Evolution API (porta 8080)</text>
<text class="text-body" x="800" y="245">Gateway que recebe, valida e encaminha mensagens</text>

<line class="line" x1="800" y1="300" x2="800" y2="350"/>

<!-- ── APP.PY ──────────────────────────────────────────────── -->
<rect class="box" x="400" y="350" width="800" height="155" rx="14"/>
<text class="text-title" x="800" y="378">app.py — Webhook FastAPI (porta 8000)</text>
<text class="text-body" x="800" y="403">Extrai chat_id, sender_name (pushName) e mensagem</text>
<text class="text-body" x="800" y="424">Filtra grupos (@g.us) e mensagens do proprio bot (fromMe)</text>
<text class="text-body" x="800" y="445">Ignora sticker, imagem sem legenda, reacao</text>
<text class="text-body" x="800" y="466">Detecta tipo da mensagem e verifica acesso</text>

<line class="line" x1="800" y1="505" x2="800" y2="545"/>

<!-- ── CONTROLE DE ACESSO ──────────────────────────────────── -->
<rect class="box-yellow" x="400" y="545" width="800" height="230" rx="14"/>
<text class="text-title-yellow" x="800" y="575">Controle de Acesso — access_control.py</text>
<text class="text-body-yellow" x="800" y="603">Consulta SQLite: data/access.db</text>
<text class="text-body-red" x="800" y="642">✗  Nao autorizado  →  envia mensagem de bloqueio e encerra</text>
<text class="text-body-yellow" x="800" y="667">△  Admin + /comando  →  executa comando admin e encerra</text>
<text class="text-body" x="800" y="692">✓  Autorizado (usuario comum)  →  continua o fluxo</text>

<!-- Seta bloqueado (saindo pela direita e voltando) -->
<line class="line-red" x1="1200" y1="642" x2="1280" y2="642"/>
<line class="line-red" x1="1280" y1="642" x2="1280" y2="112"/>
<line class="line-red" x1="1280" y1="112" x2="1200" y2="112"/>
<text fill="#EF4444" font-family="monospace" font-size="12px" text-anchor="middle" x="1330" y="385">bloqueado</text>

<!-- Seta admin (saindo pela esquerda) -->
<line class="line-yellow" x1="400" y1="667" x2="190" y2="667"/>
<rect class="box-yellow" x="10" y="610" width="180" height="120" rx="10"/>
<text class="text-title-yellow" x="100" y="634" font-size="14px">Cmd Admin</text>
<text class="text-body-yellow" x="100" y="660" font-size="13px">/autorizar</text>
<text class="text-body-yellow" x="100" y="679" font-size="13px">/bloquear</text>
<text class="text-body-yellow" x="100" y="698" font-size="13px">/remover</text>
<text class="text-body-yellow" x="100" y="717" font-size="13px">/limpar</text>

<!-- Setas divergentes do controle de acesso -->
<line class="line" x1="600" y1="825" x2="380" y2="905"/>
<line class="line" x1="1000" y1="825" x2="1220" y2="905"/>

<!-- Label "se for texto" -->
<rect fill="#0B0F19" stroke="#00FF88" stroke-width="1" rx="6" x="440" y="847" width="130" height="24"/>
<text fill="#FACC15" font-family="monospace" font-size="13px" font-weight="bold" text-anchor="middle" x="505" y="864">se for texto</text>

<!-- Label "se for audio" -->
<rect fill="#0B0F19" stroke="#00FF88" stroke-width="1" rx="6" x="1030" y="847" width="130" height="24"/>
<text fill="#FACC15" font-family="monospace" font-size="13px" font-weight="bold" text-anchor="middle" x="1095" y="864">se for audio</text>

<!-- ── TEXTO DIRETO (esquerda) ────────────────────────────── -->
<rect class="box" x="80" y="905" width="600" height="160" rx="14"/>
<text class="text-title" x="380" y="933">Texto direto</text>
<text class="text-body" x="380" y="960">mensagem extraida de conversation</text>
<text class="text-body" x="380" y="983">ou extendedTextMessage.text</text>
<text class="text-body" x="380" y="1006">passa direto para buffer_message()</text>

<!-- ── TRANSCRIBE (direita) ──────────────────────────────── -->
<rect class="box" x="920" y="905" width="600" height="160" rx="14"/>
<text class="text-title" x="1220" y="933">transcribe.py</text>
<text class="text-body" x="1220" y="960">get_media_base64() — baixa via Evolution API</text>
<text class="text-body" x="1220" y="983">OpenAI Whisper (whisper-1)</text>
<text class="text-body" x="1220" y="1006">language="pt"</text>
<text class="text-body" x="1220" y="1029">texto transcrito → buffer_message()</text>

<!-- Setas convergentes para buffer -->
<line class="line" x1="380" y1="1065" x2="800" y2="1140"/>
<line class="line" x1="1220" y1="1065" x2="800" y2="1140"/>

<!-- ── BUFFER ───────────────────────────────────────────────── -->
<rect class="box" x="400" y="1140" width="800" height="200" rx="14"/>
<text class="text-title" x="800" y="1175">message_buffer.py — Debounce com Redis</text>
<text class="text-body" x="800" y="1205">Armazena em {chat_id}_msg_buffer</text>
<text class="text-body" x="800" y="1230">Inicia timer de 3 segundos</text>
<text class="text-body" x="800" y="1255">Cancela e recria timer se nova mensagem chegar</text>
<text class="text-body" x="800" y="1280">Apos timeout — route_and_invoke()</text>

<line class="line" x1="800" y1="1340" x2="800" y2="1380"/>

<!-- ── ROUTER ─────────────────────────────────────────────── -->
<rect class="box" x="350" y="1380" width="900" height="260" rx="14"/>
<text class="text-title" x="800" y="1415">chains.py — route_and_invoke()</text>
<text class="text-body" x="800" y="1445">Busca historico no Redis / monta contexto da conversa</text>
<text class="text-body" x="800" y="1472">Router LLM classifica a intencao da pergunta</text>
<text class="text-body" x="800" y="1499">sql  →  dados de vendas, compras, faturamento, estornos</text>
<text class="text-body" x="800" y="1526">docs  →  documentos internos, politicas, contatos</text>
<text class="text-body" x="800" y="1553">ambos  →  executa os dois agentes em sequencia</text>
<text class="text-body" x="800" y="1580">geral  →  saudacoes e perguntas fora do escopo</text>

<!-- Segmento 1: Router → Labels -->
<line class="line" x1="590" y1="1640" x2="325" y2="1675"/>
<line class="line" x1="800" y1="1640" x2="920" y2="1675"/>
<line class="line" x1="1010" y1="1640" x2="1245" y2="1675"/>

<!-- Labels das rotas -->
<rect fill="#0B0F19" stroke="#00FF88" stroke-width="1" rx="6" x="200" y="1675" width="250" height="64"/>
<text fill="#FACC15" font-family="monospace" font-size="13px" font-weight="bold" text-anchor="middle" x="325" y="1695">sql / ambos</text>
<text fill="#FACC15" font-family="monospace" font-size="12px" font-weight="bold" text-anchor="middle" x="325" y="1714">vendas • delivery • pgto</text>
<text fill="#FACC15" font-family="monospace" font-size="12px" font-weight="bold" text-anchor="middle" x="325" y="1731">estornos • compras</text>

<rect fill="#0B0F19" stroke="#00FF88" stroke-width="1" rx="6" x="810" y="1675" width="220" height="46"/>
<text fill="#FACC15" font-family="monospace" font-size="13px" font-weight="bold" text-anchor="middle" x="920" y="1695">geral</text>
<text fill="#FACC15" font-family="monospace" font-size="12px" font-weight="bold" text-anchor="middle" x="920" y="1714">saudações • fora do escopo</text>

<rect fill="#0B0F19" stroke="#00FF88" stroke-width="1" rx="6" x="1110" y="1675" width="270" height="46"/>
<text fill="#FACC15" font-family="monospace" font-size="13px" font-weight="bold" text-anchor="middle" x="1245" y="1695">docs / ambos</text>
<text fill="#FACC15" font-family="monospace" font-size="12px" font-weight="bold" text-anchor="middle" x="1245" y="1714">documentos • contatos</text>

<!-- Segmento 2: Labels → Agentes -->
<line class="line" x1="325" y1="1739" x2="400" y2="1740"/>
<line class="line" x1="920" y1="1721" x2="900" y2="1820"/>
<line class="line" x1="1245" y1="1721" x2="1300" y2="1740"/>

<!-- ── AGENTE SQL (esquerda) ──────────────────────────────── -->
<rect class="box agent" x="10" y="1740" width="780" height="190" rx="14"/>
<text class="text-title" x="400" y="1778">Agente SQL — GPT-4o</text>
<text class="text-body" x="400" y="1808">ReAct: Thought / Action / Observation / Final Answer</text>
<text class="text-body" x="400" y="1833">Ferramentas: Dremio (vendas + delivery + pgto + estornos)</text>
<text class="text-body" x="400" y="1853">+ MySQL (compras)</text>
<text class="text-body" x="400" y="1878">Prompt: regras SQL, SSS, confidencialidade</text>

<!-- ── LLM DIRETO — GERAL (centro) ──────────────────────── -->
<rect class="box" x="800" y="1820" width="200" height="130" rx="14"/>
<text class="text-title" x="900" y="1851">LLM Direto — GPT-4o</text>
<text class="text-body" x="900" y="1876">Prompt: general_prompt</text>
<text class="text-body" x="900" y="1898">sem ferramentas</text>
<text class="text-body" x="900" y="1920">resposta direta</text>

<!-- ── AGENTE RAG (direita) ──────────────────────────────── -->
<rect class="box agent" x="1010" y="1740" width="580" height="180" rx="14"/>
<text class="text-title" x="1300" y="1778">Agente RAG — GPT-4o</text>
<text class="text-body" x="1300" y="1808">ReAct: Thought / Action / Observation / Final Answer</text>
<text class="text-body" x="1300" y="1833">Ferramenta: consultar_documentos</text>
<text class="text-body" x="1300" y="1858">Prompt: regras de documentos institucionais</text>

<!-- Setas do agente SQL para tools (5 tools) -->
<line class="line" x1="87"  y1="1930" x2="87"  y2="2050"/>
<line class="line" x1="243" y1="1930" x2="243" y2="2050"/>
<line class="line" x1="399" y1="1930" x2="399" y2="2050"/>
<line class="line" x1="555" y1="1930" x2="555" y2="2050"/>
<line class="line" x1="711" y1="1930" x2="711" y2="2050"/>

<!-- Labels SQL tools -->
<rect fill="#0B0F19" stroke="#00FF88" stroke-width="1" rx="6" x="10"  y="1948" width="154" height="42"/>
<text fill="#FACC15" font-family="monospace" font-size="12px" font-weight="bold" text-anchor="middle" x="87"  y="1965">vendas /</text>
<text fill="#FACC15" font-family="monospace" font-size="12px" font-weight="bold" text-anchor="middle" x="87"  y="1982">faturamento</text>

<rect fill="#0B0F19" stroke="#00FF88" stroke-width="1" rx="6" x="166" y="1948" width="154" height="42"/>
<text fill="#FACC15" font-family="monospace" font-size="12px" font-weight="bold" text-anchor="middle" x="243" y="1965">vendas</text>
<text fill="#FACC15" font-family="monospace" font-size="12px" font-weight="bold" text-anchor="middle" x="243" y="1982">delivery</text>

<rect fill="#0B0F19" stroke="#00FF88" stroke-width="1" rx="6" x="322" y="1948" width="154" height="42"/>
<text fill="#FACC15" font-family="monospace" font-size="12px" font-weight="bold" text-anchor="middle" x="399" y="1965">formas de</text>
<text fill="#FACC15" font-family="monospace" font-size="12px" font-weight="bold" text-anchor="middle" x="399" y="1982">pagamento</text>

<rect fill="#0B0F19" stroke="#00FF88" stroke-width="1" rx="6" x="478" y="1948" width="154" height="42"/>
<text fill="#FACC15" font-family="monospace" font-size="12px" font-weight="bold" text-anchor="middle" x="555" y="1965">estornos /</text>
<text fill="#FACC15" font-family="monospace" font-size="12px" font-weight="bold" text-anchor="middle" x="555" y="1982">cancelamentos</text>

<rect fill="#0B0F19" stroke="#00FF88" stroke-width="1" rx="6" x="634" y="1948" width="154" height="42"/>
<text fill="#FACC15" font-family="monospace" font-size="12px" font-weight="bold" text-anchor="middle" x="711" y="1965">compras /</text>
<text fill="#FACC15" font-family="monospace" font-size="12px" font-weight="bold" text-anchor="middle" x="711" y="1982">pedidos</text>

<!-- Seta do agente RAG para tool -->
<line class="line" x1="1300" y1="1920" x2="1300" y2="2050"/>

<!-- Linha LLM direto → pos-processamento -->
<line class="line" x1="900" y1="1950" x2="900" y2="2220"/>
<line class="line" x1="900" y1="2220" x2="800" y2="2350"/>

<!-- ── DREMIO TOOL (vendas) ─────────────────────────────────── -->
<rect class="box" x="10" y="2050" width="154" height="170" rx="14"/>
<text class="text-title" x="87" y="2074" font-size="13">consultar_vendas</text>
<text class="text-body" x="87" y="2096" font-size="11">DremioSalesQueryTool</text>
<text class="text-body" x="87" y="2114" font-size="11">REST API Dremio</text>
<text class="text-body" x="87" y="2132" font-size="11">Tabela: fSales</text>
<text class="text-body" x="87" y="2150" font-size="11">retorna DataFrame</text>

<!-- ── DREMIO TOOL (delivery) ──────────────────────────────── -->
<rect class="box" x="166" y="2050" width="154" height="170" rx="14"/>
<text class="text-title" x="243" y="2074" font-size="13">consultar_delivery</text>
<text class="text-body" x="243" y="2094" font-size="10">DremioDeliveryQueryTool</text>
<text class="text-body" x="243" y="2112" font-size="11">REST API Dremio</text>
<text class="text-body" x="243" y="2130" font-size="11">fSalesDelivery</text>
<text class="text-body" x="243" y="2148" font-size="11">retorna DataFrame</text>

<!-- ── DREMIO TOOL (pagamentos) ────────────────────────────── -->
<rect class="box" x="322" y="2050" width="154" height="170" rx="14"/>
<text class="text-title" x="399" y="2067" font-size="12">consultar_formas</text>
<text class="text-title" x="399" y="2082" font-size="12">_pagamento</text>
<text class="text-body" x="399" y="2100" font-size="10">DremioPaymentQueryTool</text>
<text class="text-body" x="399" y="2118" font-size="11">REST API Dremio</text>
<text class="text-body" x="399" y="2136" font-size="11">fFormasPagamento</text>
<text class="text-body" x="399" y="2154" font-size="11">retorna DataFrame</text>

<!-- ── DREMIO TOOL (estornos) ──────────────────────────────── -->
<rect class="box" x="478" y="2050" width="154" height="170" rx="14"/>
<text class="text-title" x="555" y="2074" font-size="13">consultar_estornos</text>
<text class="text-body" x="555" y="2094" font-size="10">DremioEstornosQueryTool</text>
<text class="text-body" x="555" y="2112" font-size="11">REST API Dremio</text>
<text class="text-body" x="555" y="2130" font-size="11">Tabela: fEstornos</text>
<text class="text-body" x="555" y="2148" font-size="11">retorna DataFrame</text>

<!-- ── MYSQL TOOL ──────────────────────────────────────────── -->
<rect class="box" x="634" y="2050" width="154" height="170" rx="14"/>
<text class="text-title" x="711" y="2074" font-size="13">consultar_compras</text>
<text class="text-body" x="711" y="2094" font-size="10">MySQLPurchasesQueryTool</text>
<text class="text-body" x="711" y="2112" font-size="11">Conector MySQL</text>
<text class="text-body" x="711" y="2130" font-size="11">tabela_compras</text>
<text class="text-body" x="711" y="2148" font-size="11">retorna DataFrame</text>

<!-- ── RAG TOOL ────────────────────────────────────────────── -->
<rect class="box" x="1010" y="2050" width="580" height="170" rx="14"/>
<text class="text-title" x="1300" y="2086">consultar_documentos</text>
<text class="text-body" x="1300" y="2113">RAGDocumentQueryTool</text>
<text class="text-body" x="1300" y="2136">Chroma similarity_search(k=5)</text>
<text class="text-body" x="1300" y="2159">vectorstore/ — disco persistente</text>

<!-- Setas convergentes para pos-processamento -->
<line class="line" x1="87"   y1="2220" x2="800" y2="2350"/>
<line class="line" x1="243"  y1="2220" x2="800" y2="2350"/>
<line class="line" x1="399"  y1="2220" x2="800" y2="2350"/>
<line class="line" x1="555"  y1="2220" x2="800" y2="2350"/>
<line class="line" x1="711"  y1="2220" x2="800" y2="2350"/>
<line class="line" x1="1300" y1="2220" x2="800" y2="2350"/>

<!-- ── POS PROCESSAMENTO ──────────────────────────────────── -->
<rect class="box" x="400" y="2350" width="800" height="160" rx="14"/>
<text class="text-title" x="800" y="2385">chains.py — Pos-processamento</text>
<text class="text-body" x="800" y="2415">Salva historico atualizado no Redis</text>
<text class="text-body" x="800" y="2440">Retorna resposta formatada</text>

<line class="line-purple" x1="800" y1="2510" x2="800" y2="2560"/>

<!-- ── ENVIO ──────────────────────────────────────────────── -->
<rect class="box" x="400" y="2560" width="800" height="140" rx="14"/>
<text class="text-title" x="800" y="2595">integrations/evolution_api.py</text>
<text class="text-body" x="800" y="2625">send_whatsapp_message()</text>
<text class="text-body" x="800" y="2650">POST — Evolution API — WhatsApp</text>

<line class="line" x1="800" y1="2700" x2="800" y2="2750"/>

<!-- ── USUARIO FINAL ───────────────────────────────────────── -->
<rect class="box" x="400" y="2750" width="800" height="90" rx="14"/>
<text class="text-title" x="800" y="2785">Usuario WhatsApp</text>
<text class="text-body" x="800" y="2815">"R$ 45.230,00 em janeiro" / "RH: Joao Silva — joao@empresa.com"</text>

</svg>
